<?xml version="1.0" encoding="UTF-8"?>
<svg id="Laag_1_Afbeelding" data-name="Laag 1 Afbeelding" xmlns="http://www.w3.org/2000/svg" viewBox="0 0 211.2 208.32">
  <defs>
    <style>
      .cls-1 {
        fill: #68a740;
      }

      .cls-2 {
        fill: #69a740;
      }

      .cls-3 {
        fill: #cc5916;
      }

      .cls-4 {
        fill: #69a840;
      }

      .cls-5 {
        fill: #fefefe;
      }

      .cls-6 {
        fill: #6aa841;
      }
    </style>
  </defs>
  <path class="cls-3" d="M28.8,0h.24c6.22,3.65,13.16,4.83,20.13,5.89,6.52.99,13.08,1.58,19.67,1.98,4.9.3,9.81.5,14.72.73,4.04.19,8.08-.02,12.1.23,5.36.34,10.72.26,16.06.14,4.56-.1,9.11-.03,13.66-.23,5.07-.22,10.14-.35,15.2-.7,9.05-.63,18.09-1.36,27.01-3.09,3.53-.69,7.04-1.49,10.39-2.86,1.45-.59,2.73-1.5,4.18-2.09h.24c.76.29,1.34.81,1.86,1.43,3.38,4.08,6.78,8.14,10.17,12.22,3.39,4.07,6.78,8.14,10.18,12.21,1.76,2.11,3.49,4.25,5.3,6.32.61.7,1.01,1.51,1.3,2.38v.24c-.29.77-.82,1.34-1.43,1.88-2.64,2.32-5.28,4.65-7.69,7.21-6.41,6.79-12.37,13.92-16.53,22.38-1.87,3.8-3.26,7.76-3.69,11.97-.38,3.71-.04,7.42.79,11.08,1.26,5.58,3.46,10.8,5.87,15.95,3.36,7.17,6.82,14.29,9.16,21.88,1.49,4.83,2.58,9.73,3.06,14.77.25,2.58.49,5.17.46,7.77-.09,8.25-2.91,15.34-8.77,21.25-4.45,4.49-9.77,7.58-15.48,10.08-9.15,4.01-18.83,6.11-28.64,7.69-6.03.97-12.12,1.52-18.19,2.2-5.58.63-10.55,2.8-14.92,6.34-3.33,2.7-6.02,5.94-8.14,9.66-.16.28-.35.54-.54.79-.62.81-1.23.82-1.83,0-.73-1-1.33-2.09-2.03-3.11-5.05-7.46-11.91-12.17-20.86-13.6-3.31-.53-6.67-.68-10-1.07-10.94-1.29-21.76-3.18-32.19-6.81-6.6-2.3-12.87-5.28-18.29-9.82-6.02-5.04-9.95-11.32-11.01-19.2-.69-5.07-.19-10.13.51-15.16,1.19-8.47,4-16.44,7.48-24.21,2.5-5.58,5.32-11.02,7.54-16.72,2.22-5.7,3.8-11.53,3.62-17.73-.12-4.06-1.16-7.89-2.72-11.6-2.84-6.74-7.02-12.62-11.69-18.19-2.47-2.94-5.03-5.8-7.78-8.47-1.89-1.84-3.82-3.64-5.83-5.35-.62-.53-1.14-1.11-1.43-1.87v-.24c.78-2.36,2.67-3.92,4.17-5.75,3.78-4.63,7.63-9.19,11.46-13.78,3.77-4.53,7.55-9.05,11.32-13.59.52-.62,1.09-1.14,1.86-1.43Z"/>
  <path class="cls-1" d="M206.35,34.31c-.16.43-.55.65-.87.94-7.22,6.56-13.82,13.67-19.18,21.84-3.76,5.72-6.82,11.77-8.04,18.59-1.03,5.79-.34,11.47,1.2,17.08,1.54,5.62,3.96,10.89,6.42,16.14,3.36,7.17,6.73,14.33,8.84,22.01,1.53,5.58,2.29,11.27,2.53,17.04.44,10.62-4.14,18.64-12.75,24.56-6.48,4.46-13.76,7.09-21.28,9.12-9.33,2.51-18.85,3.9-28.44,4.88-3.65.37-7.33.62-10.87,1.73-7.2,2.27-12.89,6.61-17.44,12.53-.86,1.11-.85,1.11-1.7.01-5.48-7.11-12.45-11.94-21.41-13.45-3.97-.67-8.02-.88-12.03-1.35-11.7-1.36-23.27-3.33-34.23-7.91-5.99-2.5-11.5-5.78-16.03-10.52-2.48-2.59-4.46-5.53-5.96-8.8-.35-.75-.23-1.16.42-1.7,23.4-19.13,46.79-38.29,70.18-57.44,27.59-22.6,55.18-45.2,82.78-67.8,6.9-5.65,13.81-11.28,20.69-16.96.7-.58,1.05-.53,1.62.14,5.17,6.05,10.12,12.28,15.11,18.48.2.24.45.47.46.83Z"/>
  <path class="cls-5" d="M45.51,29.03c1.7,0,3.34.04,4.97-.02.75-.03,1.02.23,1.21.94,1.63,5.9,3.53,11.73,4.83,17.9.43-.79.46-1.51.63-2.2,1.31-5.35,3.04-10.58,4.55-15.88.15-.51.35-.8.98-.77,1.4.06,2.8.04,4.2,0,.67-.02.93.07.66.86-2.59,7.59-5.14,15.19-7.68,22.8-.19.56-.46.74-1.03.73-1.64-.03-3.28-.02-4.92,0-.49,0-.78-.11-.96-.65-2.48-7.83-4.99-15.66-7.49-23.49-.01-.03.01-.08.04-.24Z"/>
  <path class="cls-5" d="M28.12,47.74c2.07.92,4.12,1.55,6.33,1.46.51-.02,1.03-.09,1.53-.22,1.09-.27,1.89-.89,2.06-2.06.17-1.18-.45-1.96-1.41-2.55-.96-.59-2.01-.96-3.06-1.35-1.2-.45-2.35-.99-3.39-1.75-4-2.92-3.82-8.6.46-11.11,3.72-2.18,7.65-1.84,11.58-.51.43.14.52.37.38.81-.32,1.03-.61,2.07-.85,3.11-.15.64-.41.68-.98.45-1.8-.71-3.67-1.1-5.62-.71-1.09.22-2,.71-2.22,1.89-.22,1.23.55,1.97,1.54,2.44,1.33.64,2.72,1.15,4.06,1.75,1.89.84,3.61,1.91,4.56,3.86,1.48,3.04.46,6.98-2.49,8.76-4.2,2.53-8.63,2.09-13.05.53-.41-.15-.54-.42-.43-.84.33-1.31.66-2.62,1-3.97Z"/>
  <path class="cls-5" d="M183.07,42.22c.15-.59-.17-.94-.35-1.32-1.47-3.11-2.67-6.32-3.94-9.52-.25-.64-.17-1,.38-1.41.99-.74,1.95-1.53,2.89-2.34.47-.41.77-.35,1.18.11,3.71,4.14,7.44,8.26,11.19,12.37.43.47.45.76-.09,1.1-.2.13-.38.29-.56.45q-1.99,1.6-3.71-.38c-2.41-2.78-4.82-5.55-7.23-8.33-.26.19-.06.35,0,.5,1.55,3.85,3.09,7.71,4.69,11.53.35.83.18,1.25-.49,1.76-1.66,1.26-1.63,1.29-3.32.09-3.15-2.25-6.33-4.46-9.38-6.99-.04.51.28.73.48.99,2.27,3.1,4.53,6.19,6.84,9.26.46.62.55.97-.14,1.52-2.23,1.76-2.21,1.79-3.87-.55-2.77-3.91-5.52-7.84-8.34-11.72-.54-.74-.45-1.11.25-1.58,1.22-.82,2.21-2.53,3.5-2.49,1.21.03,2.4,1.42,3.57,2.25,2.14,1.53,4.26,3.1,6.45,4.7Z"/>
  <path class="cls-5" d="M140.41,77.06c-.03-.62-.38-.8-.61-1.05-2.28-2.47-4.33-5.13-6.47-7.71-.43-.53-.53-.81.09-1.31,2.29-1.85,2.26-1.88,4.09.39,2.99,3.7,5.96,7.41,8.99,11.08.61.74.4,1.01-.18,1.66-1.67,1.86-3.32,1.9-5.52.82-3.14-1.55-6.51-2.63-9.65-4.21-.21-.11-.42-.24-.82-.07.42.5.81.95,1.19,1.42,2.08,2.53,4.15,5.07,6.25,7.59.46.55.57.88-.08,1.42-2.23,1.81-2.2,1.84-4-.38-2.99-3.7-5.97-7.4-8.98-11.08-.53-.65-.6-.94.07-1.68,1.93-2.1,3.82-2.3,6.37-1.03,2.98,1.48,6.21,2.46,9.26,4.15Z"/>
  <path class="cls-5" d="M48.56,142.87c2.43,2.97,4.81,5.92,7.25,8.82.61.72.71,1.13-.14,1.77-2.09,1.59-2.05,1.63-3.73-.45-3.04-3.76-6.06-7.53-9.14-11.26-.58-.7-.4-.95.17-1.58,1.9-2.11,3.8-2.33,6.37-1.04,2.91,1.47,6.07,2.42,8.96,3.97.13.07.26.2.51,0-2.54-2.65-4.78-5.55-7.13-8.36-.64-.76-.6-1.13.19-1.74,2.05-1.58,2.02-1.62,3.67.4,3.07,3.79,6.12,7.59,9.22,11.35.54.65.41.9-.14,1.49-1.68,1.81-3.33,2.07-5.62.91-3.09-1.56-6.43-2.6-9.54-4.16-.26-.13-.5-.25-.89-.13Z"/>
  <path class="cls-5" d="M159.4,65.33c.05,2.11-.84,3.87-2.09,5.48-1.74,2.24-4.01,3.87-6.31,5.47-.49.34-.73.19-1.07-.22-3.43-4.27-6.86-8.52-10.33-12.76-.4-.49-.35-.77.07-1.18,1.62-1.61,3.3-3.14,5.19-4.42,5.86-3.96,12.39-1.48,14.25,5.38.2.74.29,1.49.28,2.25Z"/>
  <path class="cls-5" d="M77.61,131.49c.02,2.12-.85,3.89-2.09,5.51-1.73,2.25-4,3.88-6.31,5.47-.45.31-.71.28-1.07-.17-3.45-4.3-6.91-8.59-10.4-12.86-.38-.47-.27-.73.09-1.09,1.76-1.75,3.58-3.43,5.69-4.75,2.8-1.75,5.78-2.5,8.81-.71,3.23,1.91,5.02,4.82,5.27,8.59Z"/>
  <path class="cls-5" d="M117.5,98.72c-.01,2.62-.85,4.41-2.11,6.01-1.75,2.23-3.99,3.89-6.31,5.46-.5.34-.76.19-1.08-.21-3.43-4.26-6.87-8.51-10.32-12.75-.38-.47-.36-.76.06-1.18,1.79-1.77,3.64-3.48,5.8-4.8,2.79-1.71,5.74-2.37,8.71-.62,3.23,1.91,4.99,4.84,5.25,8.09Z"/>
  <path class="cls-5" d="M29.32,155.79c-.16-6.4,6.42-11.84,12.47-8.66,3.84,2.02,6.41,6.68,5.75,10.61-1,6.02-8.08,9.23-13.16,5.89-3.12-2.05-4.89-4.97-5.06-7.84Z"/>
  <path class="cls-5" d="M97.9,108.14c3.66-.08,5.5,2.89,8.38,4.29-1.08.88-2.01,1.63-2.92,2.39-.46.39-.83.11-1.18-.14-1.08-.76-2.14-1.54-3.21-2.31-.52-.37-1.04-.74-1.7-.84-.81-.12-2.62.64-2.8,1.31-.19.71.55,1.06.91,1.54.91,1.21,1.88,2.39,2.86,3.54.4.47.39.72-.1,1.14-2.51,2.15-2.5,2.17-4.6-.41-2.92-3.6-5.82-7.21-8.76-10.8-.43-.53-.49-.85.04-1.36,2.03-1.93,4.01-3.93,6.59-5.13,2.92-1.36,5.97-.06,6.87,2.87.4,1.32.17,2.6-.37,3.9Z"/>
  <path class="cls-5" d="M177.1,55.04c-.13.15-.17.23-.23.28-1.03.82-1.99,2.13-3.12,2.3-1.08.16-2.14-1.19-3.16-1.93-.69-.5-1.13-.47-1.74.09-.82.76-1.71,1.44-2.6,2.11-.47.35-.56.68-.3,1.21.41.82.66,1.73,1.13,2.51.59.98.32,1.56-.56,2.13-.76.5-1.44,1.13-2.26,1.79-.63-1.55-1.22-3.01-1.81-4.47-1.66-4.1-3.3-8.22-5-12.31-.28-.68-.21-1.07.38-1.5,1-.73,1.94-1.54,2.89-2.33.36-.3.64-.47,1.14-.13,4.9,3.31,9.82,6.59,14.73,9.87.16.11.32.24.52.39Z"/>
  <path class="cls-5" d="M120.81,77.26c.33-.03.45.21.61.37q1.87,1.95-.24,3.67c-.99.81-1.96,1.65-2.98,2.41-.53.39-.48.66-.11,1.14,1.81,2.35,1.79,2.36,4.07.51.68-.56,1.44-1.04,2.04-1.67.8-.85,1.24-.54,1.82.24,1.24,1.64,1.28,1.61-.3,2.9-.99.81-1.96,1.65-2.99,2.4-.57.42-.55.73-.11,1.22.59.65,1.14,1.34,1.66,2.05.37.51.67.52,1.16.12,1.47-1.23,3-2.4,4.45-3.64.57-.49.87-.42,1.33.14,1.58,1.92,1.6,1.9-.37,3.48-2.18,1.76-4.36,3.51-6.52,5.29-.46.38-.72.42-1.13-.09-3.47-4.33-6.97-8.65-10.47-12.96-.3-.37-.56-.63-.02-1.06,2.6-2.06,5.16-4.16,7.74-6.25.12-.1.26-.18.36-.25Z"/>
  <path class="cls-5" d="M83.1,111.86c-.03.39-.32.51-.52.68-1.39,1.14-2.78,2.28-4.2,3.38-.49.38-.64.63-.19,1.21,1.81,2.32,1.79,2.34,4.08.49.5-.4.97-.84,1.5-1.19.54-.36,1.04-1.32,1.59-.98.77.48,1.29,1.39,1.84,2.17.26.37-.23.52-.45.7-1.29,1.07-2.58,2.14-3.91,3.17-.54.41-.59.73-.12,1.22.77.8,1.25,2.25,2.19,2.4.88.14,1.69-1.16,2.54-1.81.89-.68,1.76-1.38,2.61-2.11.43-.37.68-.47,1.14.05,1.75,2.01,1.77,1.99-.3,3.66-2.14,1.73-4.3,3.45-6.42,5.21-.51.43-.78.43-1.22-.12-3.47-4.33-6.97-8.65-10.48-12.95-.36-.44-.36-.69.1-1.06,2.56-2.04,5.11-4.1,7.64-6.18.47-.39.71-.32,1.04.13.5.67,1.04,1.31,1.54,1.92Z"/>
  <path class="cls-2" d="M155.42,66.26c-.08,2.36-1.52,3.85-3.29,5.13-.37.27-.57.05-.79-.21-2.26-2.79-4.51-5.58-6.78-8.36-.37-.45-.11-.69.18-.99,1.84-1.95,4.26-2.69,6.25-1.92,2.3.9,4.44,3.97,4.43,6.35Z"/>
  <path class="cls-2" d="M67.46,125.79c2.22-.03,4.63,1.92,5.71,4.63.88,2.19.36,4.3-1.49,6.08q-1.63,1.56-3-.14c-1.88-2.33-3.74-4.67-5.66-6.96-.53-.63-.53-1,.09-1.55,1.44-1.26,2.96-2.03,4.34-2.05Z"/>
  <path class="cls-2" d="M107.36,93.54c2.28-.02,4.62,1.87,5.71,4.61.88,2.21.36,4.3-1.5,6.07q-1.62,1.54-2.99-.15c-1.9-2.36-3.79-4.73-5.73-7.06-.47-.56-.45-.9.09-1.37,1.28-1.13,2.63-2.08,4.42-2.11Z"/>
  <path class="cls-2" d="M43.72,157.31c0,2.62-2.33,4.43-4.87,3.77-2.74-.71-5.57-4.22-5.69-7.05-.1-2.48,2.13-4.44,4.54-3.98,2.94.56,6,4.25,6.01,7.26Z"/>
  <path class="cls-4" d="M92.41,104.62c1.91,0,3.1,1.83,2.45,3.42-.43,1.06-1.35,1.65-2.18,2.34-.3.25-.49.08-.68-.16-.82-1.03-1.66-2.05-2.49-3.08-.15-.19-.32-.39-.08-.62.91-.91,1.82-1.81,2.98-1.9Z"/>
  <path class="cls-6" d="M161.13,48.78c2.08,1.46,3.89,2.73,5.7,3.99.31.21.35.41.02.64-.07.04-.13.1-.19.15q-2.43,2.22-3.74-.82c-.53-1.23-1.11-2.43-1.8-3.95Z"/>
</svg>